<?xml version="1.0" encoding="UTF-8"?>
<!DOCTYPE svg PUBLIC "-//W3C//DTD SVG 1.1//EN" "http://www.w3.org/Graphics/SVG/1.1/DTD/svg11.dtd">
<!-- Creator: CorelDRAW X8 -->
<svg xmlns="http://www.w3.org/2000/svg" xml:space="preserve" width="678px" height="428px" version="1.1" style="shape-rendering:geometricPrecision; text-rendering:geometricPrecision; image-rendering:optimizeQuality; fill-rule:evenodd; clip-rule:evenodd"
viewBox="0 0 277 175"
 xmlns:xlink="http://www.w3.org/1999/xlink">
 <defs>
  <style type="text/css">
   <![CDATA[
    .fil2 {fill:#0079C1}
    .fil1 {fill:white}
    .fil0 {fill:black;fill-opacity:0.070588}
   ]]>
  </style>
 </defs>
 <g id="Layer_x0020_1">
  <metadata id="CorelCorpID_0Corel-Layer"/>
  <path class="fil0" d="M255 0l-233 0c-13,0 -22,9 -22,22l0 131c0,12 10,22 22,22l233 0c12,0 22,-10 22,-22l0 -131c0,-13 -11,-22 -22,-22l0 0z"/>
  <path class="fil1" d="M255 7c8,0 14,7 14,15l0 131c0,8 -6,14 -14,14l-233 0c-8,0 -15,-6 -15,-14l0 -131c0,-8 7,-15 15,-15l233 0z"/>
 </g>
 <g id="Layer_x0020_1_0">
  <metadata id="CorelCorpID_1Corel-Layer"/>
  <g id="_1520634247392">
   <polygon class="fil2" points="93,104 93,98 70,98 70,126 93,126 93,120 77,120 77,115 93,115 93,109 77,109 77,104 "/>
   <polygon class="fil2" points="116,126 125,126 114,112 125,98 116,98 110,107 103,98 94,98 105,112 94,126 103,126 109,118 116,126 "/>
   <path class="fil2" d="M128 98l0 28 7 0 0 -9 9 0c6,0 10,-4 10,-9 0,-6 -4,-10 -10,-10l-16 0zm18 9c0,0 0,0 0,0 0,2 -1,4 -3,4 0,0 0,0 0,0l-8 0 0 -7 8 0c0,0 0,0 0,0 2,0 3,2 3,3 0,0 0,1 0,0z"/>
   <path class="fil2" d="M162 116l3 0 8 10 9 0 -9 -10c4,-1 7,-4 7,-9 0,0 0,0 0,0 0,-5 -3,-9 -9,-9l-16 0 0 28 7 0 0 -10 0 0zm8 -12c0,0 0,0 0,0 2,0 3,2 3,3 0,0 0,0 0,0 0,2 -1,3 -3,3l-8 0 0 -6 8 0z"/>
   <polygon class="fil2" points="207,104 207,98 183,98 183,126 207,126 207,120 191,120 191,115 206,115 206,109 191,109 191,104 "/>
   <g>
    <path class="fil2" d="M230 74l9 0 0 -28 -7 0 0 18 -12 -18 -9 0 0 28 7 0 0 -18 12 18zm-41 -12l4 -9 4 9 -8 0zm13 12l8 0 -12 -28 -9 0 -12 28 8 0 2 -5 13 0 2 5zm-29 0l0 0 3 -6 -2 0c-4,0 -7,-3 -7,-8l0 0c0,-4 2,-8 7,-8l8 0 0 -6 -9 0c-8,0 -13,6 -13,14l0 0c0,9 5,14 13,14l0 0zm-24 0l7 0 0 -28 -7 0 0 28zm-14 -22c3,0 4,2 4,3 0,2 -1,3 -4,3l-7 0 0 -6 7 0zm-7 12l2 0 9 10 9 0 -9 -10c4,-1 7,-4 7,-9 0,-4 -4,-9 -10,-9l-16 0 0 28 8 0 0 -10zm-12 -12l0 -6 -23 0 0 28 23 0 0 -6 -16 0 0 -5 16 0 0 -6 -16 0 0 -5 16 0zm-49 22l7 0 7 -21 0 21 7 0 0 -28 -11 0 -6 18 -7 -18 -11 0 0 28 7 0 0 -21 7 21zm-36 -12l4 -9 4 9 -8 0zm13 12l8 0 -12 -28 -10 0 -12 28 8 0 2 -5 13 0 3 5z"/>
   </g>
   <path class="fil2" d="M224 109c6,0 9,3 9,8 0,6 -4,9 -10,9l-15 0 0 -6 15 0c2,0 3,-1 3,-2l0 0c0,-2 -1,-3 -3,-3 0,0 0,0 0,0l-6 0c-6,0 -9,-3 -9,-8 0,-5 3,-9 9,-9l16 0 -3 6 -13 0c0,0 0,0 0,0 -1,0 -2,1 -2,3l0 0 0 0c0,1 1,2 2,2 0,0 0,0 0,0l7 0z"/>
   <path class="fil2" d="M249 109c6,0 9,3 9,8 0,6 -3,9 -10,9l-14 0 0 -6 14 0c2,0 3,-1 3,-2l0 0c0,-2 -1,-3 -2,-3 -1,0 -1,0 -1,0l-6 0c-6,0 -9,-3 -9,-8 0,-5 3,-9 10,-9l15 0 -3 6 -12 0c0,0 -1,0 -1,0 -1,0 -2,1 -2,3l0 0 0 0c0,1 1,2 2,2 0,0 1,0 1,0l6 0z"/>
  </g>
 </g>
</svg>
