<?xml version="1.0" encoding="UTF-8"?>
<!DOCTYPE svg PUBLIC "-//W3C//DTD SVG 1.1//EN" "http://www.w3.org/Graphics/SVG/1.1/DTD/svg11.dtd">
<!-- Creator: CorelDRAW X8 -->
<svg xmlns="http://www.w3.org/2000/svg" xml:space="preserve" width="706px" height="446px" version="1.1" style="shape-rendering:geometricPrecision; text-rendering:geometricPrecision; image-rendering:optimizeQuality; fill-rule:evenodd; clip-rule:evenodd"
viewBox="0 0 153 97"
 xmlns:xlink="http://www.w3.org/1999/xlink">
 <defs>
  <style type="text/css">
   <![CDATA[
    .fil2 {fill:#3086C8}
    .fil1 {fill:white}
    .fil0 {fill:black;fill-opacity:0.070588}
   ]]>
  </style>
 </defs>
 <g id="Layer_x0020_1">
  <metadata id="CorelCorpID_0Corel-Layer"/>
  <path class="fil0" d="M141 0l-129 0c-7,0 -12,5 -12,12l0 73c0,6 6,12 12,12l129 0c7,0 12,-6 12,-12l0 -73c0,-7 -5,-12 -12,-12l0 0z"/>
  <path class="fil1" d="M141 4c4,0 8,4 8,8l0 73c0,4 -4,8 -8,8l-129 0c-4,0 -8,-4 -8,-8l0 -73c0,-4 4,-8 8,-8l129 0z"/>
  <path class="fil2" d="M48 48l0 15c0,1 0,1 -2,1 -7,-3 -12,-13 -9,-22 2,-4 5,-8 9,-9 2,-1 2,-1 2,0l0 15 0 0zm9 0l0 -15c0,-1 0,-1 1,0 8,3 13,13 9,21 -1,5 -4,9 -9,10 -1,1 -1,0 -1,-1l0 -15 0 0zm28 -28l-33 0c16,0 28,13 28,28 0,16 -12,29 -28,29l33 0c16,0 28,-13 28,-29 0,-15 -12,-28 -28,-28z"/>
 </g>
</svg>
