<?xml version="1.0" encoding="UTF-8"?>
<!DOCTYPE svg PUBLIC "-//W3C//DTD SVG 1.1//EN" "http://www.w3.org/Graphics/SVG/1.1/DTD/svg11.dtd">
<!-- Creator: CorelDRAW X8 -->
<svg xmlns="http://www.w3.org/2000/svg" xml:space="preserve" width="678px" height="428px" version="1.1" style="shape-rendering:geometricPrecision; text-rendering:geometricPrecision; image-rendering:optimizeQuality; fill-rule:evenodd; clip-rule:evenodd"
viewBox="0 0 273 172"
 xmlns:xlink="http://www.w3.org/1999/xlink">
 <defs>
  <style type="text/css">
   <![CDATA[
    .fil2 {fill:#3086C8}
    .fil4 {fill:#98C74C}
    .fil3 {fill:#CE4549}
    .fil1 {fill:white}
    .fil0 {fill:black;fill-opacity:0.070588}
   ]]>
  </style>
 </defs>
 <g id="Layer_x0020_1">
  <metadata id="CorelCorpID_0Corel-Layer"/>
  <path class="fil0" d="M251 0l-229 0c-13,0 -22,9 -22,22l0 129c0,12 10,21 22,21l229 0c12,0 22,-9 22,-21l0 -129c0,-13 -10,-22 -22,-22l0 0z"/>
  <path class="fil1" d="M251 7c8,0 15,7 15,15l0 129c0,8 -7,14 -15,14l-229 0c-8,0 -15,-6 -15,-14l0 -129c0,-8 7,-15 15,-15l229 0z"/>
  <path class="fil2" d="M115 115c0,8 -7,14 -15,14l-14 0 0 -72c0,-7 7,-14 14,-14l15 0 0 72z"/>
  <path class="fil3" d="M151 115c0,8 -7,14 -15,14l-14 0 0 -72c0,-7 6,-14 14,-14l15 0 0 72z"/>
  <path class="fil4" d="M187 115c0,8 -7,14 -15,14l-14 0 0 -72c0,-7 6,-14 14,-14l15 0 0 72z"/>
 </g>
</svg>
