<?xml version="1.0" encoding="UTF-8"?>
<!DOCTYPE svg PUBLIC "-//W3C//DTD SVG 1.1//EN" "http://www.w3.org/Graphics/SVG/1.1/DTD/svg11.dtd">
<!-- Creator: CorelDRAW X8 -->
<svg xmlns="http://www.w3.org/2000/svg" xml:space="preserve" width="722px" height="456px" version="1.1" style="shape-rendering:geometricPrecision; text-rendering:geometricPrecision; image-rendering:optimizeQuality; fill-rule:evenodd; clip-rule:evenodd"
viewBox="0 0 297 188"
 xmlns:xlink="http://www.w3.org/1999/xlink">
 <defs>
  <style type="text/css">
   <![CDATA[
    .fil3 {fill:#00A2E5}
    .fil4 {fill:#7375CF}
    .fil2 {fill:#EB001B}
    .fil1 {fill:white}
    .fil0 {fill:black;fill-opacity:0.070588}
   ]]>
  </style>
 </defs>
 <g id="Layer_x0020_1">
  <metadata id="CorelCorpID_0Corel-Layer"/>
  <path class="fil0" d="M274 0l-251 0c-13,0 -23,10 -23,23l0 141c0,14 11,24 23,24l251 0c13,0 23,-10 23,-24l0 -141c0,-13 -10,-23 -23,-23l0 0z"/>
  <path class="fil1" d="M274 8c9,0 16,7 16,15l0 141c0,9 -7,16 -16,16l-251 0c-8,0 -15,-7 -15,-16l0 -141c0,-8 7,-15 15,-15l251 0z"/>
  <circle class="fil2" cx="117" cy="94" r="55"/>
  <circle class="fil3" cx="180" cy="94" r="55"/>
  <path class="fil4" d="M172 94c0,-19 -9,-35 -23,-45 -14,11 -24,27 -24,45 0,18 10,35 24,45 14,-10 23,-26 23,-45z"/>
 </g>
</svg>
