<?xml version="1.0" encoding="UTF-8"?>
<!DOCTYPE svg PUBLIC "-//W3C//DTD SVG 1.1//EN" "http://www.w3.org/Graphics/SVG/1.1/DTD/svg11.dtd">
<!-- Creator: CorelDRAW X8 -->
<svg xmlns="http://www.w3.org/2000/svg" xml:space="preserve" width="722px" height="456px" version="1.1" style="shape-rendering:geometricPrecision; text-rendering:geometricPrecision; image-rendering:optimizeQuality; fill-rule:evenodd; clip-rule:evenodd"
viewBox="0 0 158 100"
 xmlns:xlink="http://www.w3.org/1999/xlink">
 <defs>
  <style type="text/css">
   <![CDATA[
    .fil2 {fill:#EB001B}
    .fil3 {fill:#F79E1B}
    .fil4 {fill:#FF5F00}
    .fil1 {fill:white}
    .fil0 {fill:black;fill-opacity:0.070588}
   ]]>
  </style>
 </defs>
 <g id="Layer_x0020_1">
  <metadata id="CorelCorpID_0Corel-Layer"/>
  <path class="fil0" d="M146 0l-133 0c-8,0 -13,5 -13,13l0 75c0,7 6,12 13,12l133 0c7,0 12,-5 12,-12l0 -75c0,-8 -5,-13 -12,-13l0 0z"/>
  <path class="fil1" d="M146 4c5,0 8,4 8,9l0 75c0,4 -3,8 -8,8l-133 0c-5,0 -9,-4 -9,-8l0 -75c0,-5 4,-9 9,-9l133 0z"/>
  <circle class="fil2" cx="63" cy="50" r="29"/>
  <circle class="fil3" cx="96" cy="50" r="29"/>
  <path class="fil4" d="M92 50c0,-10 -5,-19 -13,-24 -7,6 -12,14 -12,24 0,10 5,19 12,24 8,-5 13,-14 13,-24z"/>
 </g>
</svg>
