<?xml version="1.0" encoding="UTF-8"?>
<!DOCTYPE svg PUBLIC "-//W3C//DTD SVG 1.1//EN" "http://www.w3.org/Graphics/SVG/1.1/DTD/svg11.dtd">
<!-- Creator: CorelDRAW X8 -->
<svg xmlns="http://www.w3.org/2000/svg" xml:space="preserve" width="690px" height="436px" version="1.1" style="shape-rendering:geometricPrecision; text-rendering:geometricPrecision; image-rendering:optimizeQuality; fill-rule:evenodd; clip-rule:evenodd"
viewBox="0 0 149 94"
 xmlns:xlink="http://www.w3.org/1999/xlink">
 <defs>
  <style type="text/css">
   <![CDATA[
    .fil2 {fill:#142688}
    .fil1 {fill:white}
    .fil0 {fill:black;fill-opacity:0.070588}
   ]]>
  </style>
 </defs>
 <g id="Layer_x0020_1">
  <metadata id="CorelCorpID_0Corel-Layer"/>
  <path class="fil0" d="M137 0l-125 0c-7,0 -12,5 -12,12l0 70c0,7 5,12 12,12l125 0c7,0 12,-5 12,-12l0 -70c0,-7 -6,-12 -12,-12l0 0z"/>
  <path class="fil1" d="M137 4c4,0 8,3 8,8l0 70c0,5 -4,8 -8,8l-125 0c-5,0 -8,-3 -8,-8l0 -70c0,-5 3,-8 8,-8l125 0z"/>
  <g id="_1520634300288">
   <g>
    <path class="fil2" d="M111 40l-1 0c-2,3 -3,5 -4,11l7 0c-1,-6 -1,-8 -2,-11l0 0zm11 23l-6 0c-1,0 -1,0 -1,-1l-1 -3 0 -1 -10 0c0,0 -1,0 -1,1l-1 3c0,1 0,1 0,1l-8 0 0 -2 12 -27c0,-2 1,-3 3,-3l6 0c0,0 1,0 1,1l5 26c0,1 1,2 1,4 0,0 0,0 0,1zm-52 -2l1 -7c1,0 1,1 1,1 3,1 6,2 8,1 1,0 2,0 3,0 2,-1 2,-3 0,-5 0,0 -2,-1 -3,-2 -1,0 -3,-1 -4,-2 -5,-4 -3,-10 0,-13 2,-1 3,-3 6,-3 5,0 10,0 12,1l1 0c-1,2 -1,4 -2,7 -2,-1 -4,-2 -6,-2 -1,0 -2,0 -3,1 -1,0 -1,0 -2,0 -1,1 -1,2 0,3l2 2c2,0 3,1 5,2 1,1 3,3 4,6 1,3 -1,6 -4,9 -2,1 -2,2 -5,2 -6,0 -10,0 -14,-1 0,1 0,1 0,0l0 0zm-14 2c0,-3 0,-3 1,-4 2,-9 4,-18 5,-26 1,-1 1,-2 1,-2l7 0c0,5 -1,9 -2,13 -1,6 -3,12 -4,17 0,1 -1,1 -1,1l-7 1zm-36 -31c0,0 0,-1 1,-1l13 0c2,0 4,2 4,3l4 18c0,0 0,0 0,0 0,0 0,0 0,0l9 -20c-1,0 0,-1 0,-1l8 0c0,1 0,1 0,1l-12 29c-1,0 -1,1 -1,1 -1,1 -1,0 -2,0l-6 0c0,0 -1,0 -1,-1l-6 -24c-1,-1 -2,-2 -4,-2 -2,-1 -6,-2 -7,-2l0 -1z"/>
   </g>
  </g>
 </g>
</svg>
